<svg aria-hidden="true" style="position:absolute;width:0;height:0;overflow:hidden" xmlns="http://www.w3.org/2000/svg">
  <defs>
<symbol id="icon-weather" viewBox="0 0 32 32">
<path fill="#ff703e" style="fill: var(--color1, #ff703e)" d="M20.963 11.144c-0.44-0.092-0.945-0.144-1.463-0.144-4.142 0-7.5 3.358-7.5 7.5 0 0 0 0 0 0v0c0 0.552-0.448 1-1 1s-1-0.448-1-1v0c0-0.491 0.039-0.979 0.113-1.46-0.201-0.027-0.404-0.040-0.608-0.040h-0.005c-2.485 0-4.5 2.015-4.5 4.5s2.015 4.5 4.5 4.5v0h10c0 0 0 0 0 0 4.142 0 7.5-3.358 7.5-7.5 0-3.625-2.571-6.649-5.989-7.348l-0.048-0.008zM10.629 15.097c1.407-3.597 4.846-6.099 8.869-6.099 2.624 0 5 1.064 6.719 2.784l0 0c1.719 1.719 2.782 4.094 2.782 6.717 0 5.247-4.253 9.5-9.5 9.5h-10c-0 0-0.001 0-0.001 0-3.59 0-6.5-2.91-6.5-6.5s2.909-6.499 6.499-6.5h0zM9.263 3.153c0.053-0.010 0.113-0.015 0.175-0.015 0.49 0 0.898 0.353 0.984 0.819l0.001 0.006 0.524 2.949c0.014 0.062 0.022 0.133 0.022 0.207 0 0.552-0.448 1-1 1-0.501 0-0.917-0.369-0.989-0.85l-0.001-0.005-0.525-2.949c-0.010-0.053-0.015-0.113-0.015-0.175 0-0.49 0.353-0.898 0.819-0.984l0.006-0.001zM2.807 7.264c0.183-0.259 0.482-0.426 0.819-0.426 0.215 0 0.413 0.068 0.576 0.183l-0.003-0.002 2.463 1.725c0.275 0.181 0.454 0.488 0.454 0.837 0 0.552-0.448 1-1 1-0.226 0-0.435-0.075-0.603-0.202l0.003 0.002-2.464-1.724c-0.259-0.183-0.427-0.482-0.427-0.819 0-0.215 0.068-0.414 0.183-0.577l-0.002 0.003zM6.072 13.863c0.010 0.053 0.016 0.113 0.016 0.175 0 0.49-0.353 0.898-0.819 0.984l-0.006 0.001-2.951 0.524c-0.043 0.007-0.093 0.010-0.144 0.010-0.552 0-1-0.448-1-1 0-0.479 0.337-0.88 0.787-0.977l0.007-0.001 2.951-0.525c0.053-0.010 0.113-0.015 0.175-0.015 0.49 0 0.898 0.353 0.984 0.819l0.001 0.006zM16.736 4.807c0.259 0.183 0.426 0.481 0.426 0.819 0 0.215-0.068 0.413-0.183 0.576l0.002-0.003-1.724 2.463c-0.183 0.26-0.482 0.427-0.82 0.427-0.553 0-1.001-0.448-1.001-1.001 0-0.215 0.068-0.414 0.183-0.576l-0.002 0.003 1.727-2.463c0.183-0.259 0.482-0.426 0.819-0.426 0.215 0 0.413 0.068 0.576 0.183l-0.003-0.002z"></path>
<path fill="#ff703e" style="fill: var(--color1, #ff703e)" d="M13.067 8.445c-0.608-0.283-1.32-0.449-2.070-0.449-2.761 0-5 2.239-5 5 0 0.306 0.027 0.606 0.080 0.897l-0.005-0.030c0.16 0.891 0.553 1.724 1.14 2.415 0.148 0.173 0.238 0.4 0.238 0.647 0 0.552-0.448 1-1 1-0.305 0-0.578-0.136-0.761-0.352l-0.001-0.001c-0.786-0.922-1.345-2.060-1.577-3.313l-0.007-0.044v-0.004c-0.067-0.365-0.106-0.784-0.106-1.213 0-3.866 3.134-7 7-7 2.832 0 5.271 1.682 6.373 4.101l0.018 0.044c0.055 0.12 0.087 0.26 0.087 0.407 0 0.552-0.448 1-1 1-0.405 0-0.753-0.241-0.911-0.586l-0.003-0.006c-0.508-1.118-1.381-1.997-2.464-2.499l-0.031-0.013z"></path>
</symbol>
<symbol id="icon-facebook" viewBox="0 0 32 32">
<path d="M16 0c-8.836 0-16 7.164-16 16s7.164 16 16 16 16-7.164 16-16-7.164-16-16-16zM17.668 16.702v8.706h-3.602v-8.706h-1.799v-3h1.799v-1.8c0-2.447 1.016-3.902 3.902-3.902h2.404v3h-1.502c-1.124 0-1.198 0.42-1.198 1.202l-0.004 1.501h2.722l-0.319 3h-2.403z"></path>
</symbol>
<symbol id="icon-instagram" viewBox="0 0 32 32">
<path d="M16 0c-8.836 0-16 7.164-16 16s7.164 16 16 16 16-7.164 16-16-7.164-16-16-16zM12.483 7.518c0.91-0.042 1.2-0.052 3.517-0.052h-0.003c2.318 0 2.608 0.010 3.518 0.052 0.908 0.042 1.529 0.186 2.073 0.396 0.591 0.226 1.096 0.561 1.51 0.983l0.001 0.001c0.475 0.475 0.766 0.951 0.985 1.511 0.21 0.543 0.354 1.164 0.396 2.071 0.041 0.911 0.052 1.202 0.052 3.52 0 2.316-0.011 2.607-0.052 3.517-0.043 0.908-0.187 1.529-0.396 2.071-0.227 0.591-0.562 1.095-0.984 1.511l-0.001 0.001c-0.416 0.424-0.92 0.759-1.483 0.975l-0.029 0.010c-0.542 0.212-1.164 0.356-2.071 0.396-0.911 0.042-1.2 0.052-3.518 0.052s-2.608-0.010-3.518-0.052c-0.908-0.042-1.529-0.185-2.071-0.396-0.591-0.226-1.096-0.561-1.51-0.984l-0.001-0.001c-0.423-0.416-0.758-0.92-0.975-1.483l-0.010-0.029c-0.211-0.542-0.355-1.163-0.396-2.071-0.040-0.911-0.051-1.201-0.051-3.518s0.011-2.608 0.052-3.519c0.041-0.908 0.185-1.528 0.396-2.071 0.227-0.591 0.562-1.095 0.984-1.511l0.001-0.001c0.416-0.423 0.92-0.758 1.483-0.974l0.029-0.010c0.542-0.211 1.163-0.356 2.071-0.396z"></path>
<path d="M15.235 9.004v-0.002c-1.59 0.002-1.896 0.012-2.683 0.048-0.832 0.038-1.284 0.177-1.585 0.294l-0.018 0.006c-0.366 0.139-0.694 0.356-0.962 0.632-0.3 0.299-0.484 0.583-0.64 0.981-0.116 0.3-0.255 0.752-0.293 1.584-0.040 0.9-0.049 1.169-0.049 3.447s0.008 2.549 0.050 3.449c0.037 0.832 0.176 1.284 0.293 1.584l0.006 0.018c0.138 0.367 0.356 0.694 0.632 0.963l0.001 0.001c0.268 0.276 0.596 0.493 0.981 0.638 0.301 0.116 0.753 0.255 1.585 0.294 0.9 0.040 1.169 0.049 3.447 0.049s2.549-0.009 3.449-0.050c0.832-0.037 1.284-0.176 1.585-0.293l0.018-0.006c0.366-0.138 0.693-0.356 0.961-0.632l0.001-0.001c0.276-0.268 0.494-0.595 0.639-0.98 0.116-0.3 0.255-0.752 0.293-1.584 0.041-0.9 0.050-1.17 0.050-3.447s-0.009-2.548-0.051-3.447c-0.037-0.832-0.176-1.284-0.293-1.584-0.155-0.398-0.34-0.683-0.638-0.981s-0.582-0.484-0.98-0.639c-0.301-0.116-0.753-0.255-1.584-0.293-0.9-0.040-1.171-0.049-3.449-0.049h-0.764zM20.556 10.421v0c0.566 0 1.024 0.458 1.024 1.024s-0.458 1.024-1.024 1.024v0c-0.566 0-1.024-0.458-1.024-1.024s0.458-1.024 1.024-1.024zM11.619 16c0-2.42 1.962-4.382 4.382-4.382s4.382 1.962 4.382 4.382v0c0 2.42-1.962 4.382-4.382 4.382s-4.382-1.962-4.382-4.382v0z"></path>
<path d="M16 13.156c1.571 0 2.844 1.274 2.844 2.844s-1.273 2.844-2.844 2.844v0c-1.571 0-2.844-1.273-2.844-2.844s1.274-2.844 2.844-2.844v0z"></path>
</symbol>
<symbol id="icon-twitter" viewBox="0 0 32 32">
<path d="M16 0c-8.836 0-16 7.164-16 16s7.164 16 16 16 16-7.164 16-16-7.164-16-16-16zM15.555 13.559l-0.034-0.554c-0.1-1.436 0.783-2.747 2.182-3.254 0.516-0.181 1.388-0.204 1.958-0.045 0.224 0.068 0.649 0.293 0.951 0.498l0.549 0.372 0.604-0.192c0.335-0.102 0.782-0.271 0.984-0.385 0.19-0.101 0.358-0.158 0.358-0.124 0 0.193-0.413 0.848-0.761 1.209-0.47 0.509-0.335 0.555 0.616 0.215 0.571-0.192 0.581-0.192 0.47 0.023-0.068 0.113-0.414 0.508-0.784 0.869-0.627 0.622-0.66 0.69-0.66 1.209 0 0.803-0.38 2.475-0.761 3.39-0.705 1.717-2.216 3.492-3.727 4.384-2.126 1.253-4.957 1.57-7.341 0.836-0.795-0.249-2.16-0.881-2.16-0.994 0-0.034 0.414-0.080 0.917-0.091 1.108-0.025 2.138-0.332 3.030-0.852l-0.030 0.016 0.604-0.362-0.694-0.237c-0.985-0.34-1.869-1.119-2.092-1.853-0.068-0.237-0.044-0.249 0.581-0.249l0.649-0.011-0.548-0.26c-0.649-0.327-1.243-0.881-1.533-1.446-0.213-0.406-0.482-1.435-0.404-1.514 0.023-0.034 0.258 0.034 0.526 0.124 0.772 0.283 0.873 0.214 0.426-0.26-0.84-0.859-1.097-2.136-0.694-3.345l0.19-0.542 0.739 0.734c1.511 1.48 3.291 2.362 5.327 2.622l0.56 0.067z"></path>
</symbol>
<symbol id="icon-youtube" viewBox="0 0 32 32">
<path d="M16 0c-8.836 0-16 7.164-16 16s7.164 16 16 16 16-7.164 16-16-7.164-16-16-16zM22.668 10.5c0.743 0.215 1.313 0.798 1.506 1.534l0.003 0.015c0.356 1.366 0.356 4.218 0.356 4.218s0 2.852-0.356 4.218c-0.196 0.751-0.766 1.334-1.494 1.546l-0.015 0.004c-1.331 0.366-6.668 0.366-6.668 0.366s-5.337 0-6.668-0.366c-0.744-0.215-1.314-0.798-1.507-1.534l-0.003-0.015c-0.356-1.366-0.356-4.218-0.356-4.218s0-2.852 0.356-4.218c0.196-0.751 0.766-1.334 1.494-1.546l0.015-0.004c1.331-0.366 6.668-0.366 6.668-0.366s5.337 0 6.668 0.366z"></path>
<path d="M14.4 19.2v-5.333l4.267 2.667-4.267 2.667z"></path>
</symbol>
</defs>
</svg>