<svg width="125" height="51" viewBox="0 0 125 51" fill="none" xmlns="http://www.w3.org/2000/svg">
<path d="M46.4151 43.1109C54.4187 47.8547 61.8135 35.4588 53.7986 30.7055C45.8003 25.9613 38.4003 38.3576 46.4151 43.1109Z" fill="#FFBD60" fill-opacity="0.7"/>
<path d="M118.043 43.5496C122.732 46.3298 127.071 39.067 122.37 36.2774C117.686 33.502 113.348 40.7647 118.043 43.5496Z" fill="#FFBD60" fill-opacity="0.7"/>
<path d="M84.436 20.0778C83.942 21.9072 83.9243 23.741 84.3879 25.5786C84.7266 26.4357 85.0648 27.2876 85.4035 28.1447C86.3561 29.8394 87.6646 31.1891 89.3389 32.1877C90.5932 32.9941 91.9397 33.4321 93.3946 33.5055C94.7663 33.8161 96.1426 33.7712 97.523 33.3658C99.3626 32.8932 100.966 32.0033 102.343 30.6952C103.762 29.3155 104.743 27.6722 105.277 25.7662C105.352 25.5559 105.427 25.3456 105.491 25.131L105.867 22.3987C105.924 20.9948 105.648 19.6727 105.035 18.4383C104.801 17.5301 104.359 16.7397 103.713 16.0667C102.959 14.8448 101.942 13.8815 100.65 13.1827C99.775 12.8121 98.8998 12.4415 98.019 12.0662L95.2872 11.6895C93.8756 11.6331 92.5515 11.9082 91.3152 12.5199C89.9763 12.9216 88.812 13.6365 87.8219 14.6594C87.6634 14.8146 87.5166 14.9843 87.3642 15.1493C85.9461 16.5289 84.97 18.1718 84.436 20.0778Z" fill="#FFBD60" fill-opacity="0.7"/>
<path d="M24.736 29.5929C26.5517 25.4369 27.4672 21.5597 27.7466 20.8522C27.7466 20.8522 33.8532 20.7106 37.4649 19.7126C38.3678 19.4624 38.5574 18.9271 37.9096 18.3174C36.394 16.8899 31.5892 13.8574 29.3242 12.3662C29.4536 11.4381 30.892 5.06107 31.1867 1.1543C31.2693 0.0657467 30.3458 -0.274089 29.6369 0.225353C28.7924 0.819842 25.3388 3.44707 21.4603 7.07498C19.8835 6.28591 17.7264 5.05569 10.6144 2.61766C9.76633 2.32714 8.95145 2.58717 9.56148 4.04694C10.5848 6.49573 12.6638 10.4814 14.1255 12.5554C14.1255 12.5554 9.8984 18.5128 8.60466 21.6565C8.07548 22.9424 8.12939 23.5162 9.48152 23.275C12.113 22.807 16.9556 21.2952 19.0372 20.4765C20.0498 24.2129 21.7756 27.4849 22.7989 29.2656C23.6623 30.7694 24.276 30.6465 24.736 29.5929Z" fill="#FF703E"/>
<path d="M28.9532 5.98221C28.6567 5.42359 27.7861 5.88268 28.0835 6.4422C28.38 7.00082 29.2505 6.54173 28.9532 5.98221Z" fill="white"/>
<path d="M24.996 16.1111C24.6987 15.5525 23.8281 16.0116 24.1255 16.5711C24.4229 17.1297 25.2934 16.6706 24.996 16.1111Z" fill="white"/>
<path d="M34.4677 17.0642C34.1703 16.5056 33.2998 16.9647 33.5972 17.5242C33.8945 18.0829 34.7651 17.6238 34.4677 17.0642Z" fill="white"/>
<path d="M21.9746 18.9818C21.6782 18.4232 20.8076 18.8831 21.105 19.4418C21.4014 20.0013 22.272 19.5413 21.9746 18.9818Z" fill="white"/>
<path d="M16.2666 14.7218C15.8515 13.9408 14.6332 14.5828 15.0492 15.3656C15.4643 16.1475 16.6825 15.5046 16.2666 14.7218Z" fill="white"/>
<path d="M10.9984 21.6374C10.6525 20.9864 9.63643 21.5217 9.98322 22.1736C10.33 22.8254 11.3452 22.2901 10.9984 21.6374Z" fill="white"/>
<path d="M16.094 10.1259C15.643 9.2768 14.3205 9.97441 14.7724 10.8244C15.2235 11.6736 16.5459 10.976 16.094 10.1259Z" fill="white"/>
<path d="M27.7043 8.92477C27.2532 8.07563 25.9299 8.77323 26.3818 9.62327C26.8328 10.4724 28.1553 9.77481 27.7043 8.92477Z" fill="white"/>
<path d="M13.0479 17.5482C12.7514 16.9905 11.8808 17.4487 12.1782 18.0091C12.4747 18.5668 13.3453 18.1077 13.0479 17.5482Z" fill="white"/>
<path d="M17.786 17.8787C17.4896 17.3201 16.6181 17.7792 16.9155 18.3387C17.2119 18.8973 18.0834 18.4382 17.786 17.8787Z" fill="white"/>
<path d="M25.2256 5.72244C24.9291 5.16382 24.0586 5.62291 24.3559 6.18243C24.6524 6.74106 25.523 6.28196 25.2256 5.72244Z" fill="white"/>
<path d="M11.625 3.69901C11.3276 3.14038 10.457 3.59948 10.7544 4.159C11.0509 4.71762 11.9223 4.25853 11.625 3.69901Z" fill="white"/>
<path d="M16.3643 5.86112C16.0678 5.30249 15.1972 5.76159 15.4946 6.32111C15.7911 6.87973 16.6617 6.42064 16.3643 5.86112Z" fill="white"/>
<path d="M22.6495 12.5974C22.353 12.0388 21.4824 12.4979 21.7798 13.0574C22.0763 13.6161 22.9468 13.157 22.6495 12.5974Z" fill="white"/>
<path d="M18.4571 12.342C18.1606 11.7825 17.29 12.2425 17.5874 12.8011C17.8839 13.3606 18.7544 12.9015 18.4571 12.342Z" fill="white"/>
<path d="M27.1387 18.8455C26.8422 18.2869 25.9716 18.746 26.269 19.3055C26.5655 19.8641 27.4361 19.405 27.1387 18.8455Z" fill="white"/>
<path d="M24.8026 25.2205C24.4235 24.5067 23.3112 25.094 23.6913 25.8087C24.0704 26.5224 25.1827 25.9351 24.8026 25.2205Z" fill="white"/>
<path d="M18.6755 7.44021L18.5308 7.51642C17.4114 8.10822 18.3314 9.84596 19.4535 9.25237L19.5982 9.17615C20.7185 8.58346 19.7976 6.84661 18.6755 7.44021Z" fill="white"/>
<path d="M30.3809 17.3179C29.787 16.2007 28.0458 17.1189 28.6406 18.2379C29.2336 19.3552 30.9756 18.437 30.3809 17.3179Z" fill="white"/>
<path d="M30.3809 2.27106C29.787 1.15382 28.0458 2.072 28.6406 3.19104C29.2336 4.30828 30.9756 3.3901 30.3809 2.27106Z" fill="white"/>
<path d="M22.4976 22.4117C21.9038 21.2944 20.1626 22.2126 20.7565 23.3317C21.3503 24.4489 23.0915 23.5307 22.4976 22.4117Z" fill="white"/>
<path d="M21.1561 15.0914C20.5623 13.9741 18.8202 14.8923 19.415 16.0114C20.0088 17.1286 21.75 16.2104 21.1561 15.0914Z" fill="white"/>
<path d="M12.5088 6.07493L12.3632 6.15114C11.2429 6.74384 12.1638 8.48068 13.2859 7.88798L13.4306 7.81087C14.5509 7.21907 13.63 5.48133 12.5088 6.07493Z" fill="white"/>
<path d="M14.7598 20.4775C14.1659 19.3611 12.4247 20.2793 13.0195 21.3984C13.6125 22.5147 15.3545 21.5965 14.7598 20.4775Z" fill="white"/>
<path d="M23.9422 9.04841C23.3484 7.93116 21.6063 8.84935 22.2011 9.96838C22.795 11.0856 24.5361 10.1665 23.9422 9.04841Z" fill="white"/>
<path d="M27.9127 13.2047C27.3198 12.0874 25.5786 13.0056 26.1725 14.1246C26.7664 15.241 28.5075 14.3237 27.9127 13.2047Z" fill="white"/>
<path d="M26.6533 21.1419C26.0594 20.0247 24.3183 20.9438 24.9131 22.0628C25.5069 23.1792 27.2481 22.261 26.6533 21.1419Z" fill="white"/>
<g clip-path="url(#clip0_1703_19047)">
<path d="M12.5719 26.7797C12.9097 28.7185 13.156 30.6572 13.3179 32.596C13.4868 34.5277 13.6206 36.4454 13.7261 38.356C13.7437 38.5738 13.7156 38.7599 13.6417 38.918C13.5748 39.0796 13.4868 39.22 13.3742 39.3395C13.2687 39.4519 13.1631 39.5467 13.0505 39.6204C12.9449 39.6977 12.8569 39.7328 12.783 39.7328C12.5191 39.7328 12.2622 39.6064 12.0088 39.3535C11.7554 39.1006 11.6041 38.7705 11.5583 38.356C11.4809 37.4499 11.407 36.5402 11.3331 35.6305C11.2663 34.7244 11.1853 33.8112 11.0938 32.891C8.56708 33.5935 5.89957 34.2081 3.08425 34.7314C3.18631 35.2583 3.28484 35.7851 3.37986 36.3189C3.47136 36.8458 3.58045 37.3691 3.70362 37.8924C3.73177 37.9873 3.74937 38.1418 3.75993 38.356C3.76696 38.5738 3.75289 38.8021 3.7177 39.0444C3.67899 39.2903 3.60508 39.5151 3.49247 39.7188C3.3869 39.9155 3.22854 40.063 3.01387 40.1543C2.82383 40.1824 2.62324 40.1262 2.40857 39.9857C2.19039 39.8382 2.0461 39.6907 1.9722 39.5502C1.68011 38.8126 1.40914 37.9275 1.15576 36.895C0.909419 35.8553 0.694751 34.7701 0.508237 33.6356C0.32876 32.4941 0.202071 31.3386 0.128169 30.1655C0.0613055 28.9854 0.0507488 27.858 0.100016 26.7797C0.145765 26.425 0.283012 26.1686 0.508237 26.007C0.7405 25.849 0.95165 25.7682 1.14168 25.7682C1.35635 25.7682 1.54287 25.8455 1.70475 25.993C1.86311 26.1335 1.9898 26.3126 2.08481 26.5268C2.17631 26.7446 2.24669 26.9588 2.29596 27.1731C2.34171 27.3908 2.36635 27.5735 2.36635 27.721C2.3945 28.4902 2.42969 29.2453 2.47896 29.9829C2.52471 30.724 2.60917 31.4686 2.73234 32.2167C3.94996 32.0481 5.28372 31.8163 6.73008 31.5142C8.17293 31.2157 9.53132 30.875 10.7982 30.4886C10.7489 29.9372 10.6891 29.3788 10.6152 28.8168C10.5484 28.2549 10.478 27.6999 10.4041 27.145C10.4041 26.7341 10.5308 26.3723 10.7841 26.0632C11.0375 25.7541 11.2944 25.5996 11.5583 25.5996C11.7554 25.5996 11.9525 25.698 12.1496 25.8946C12.3537 26.0843 12.4944 26.3793 12.5719 26.7797Z" fill="white"/>
<path d="M78.4421 26.4208C78.6118 28.5158 78.6917 30.6026 78.6887 32.6817C78.6931 34.7539 78.6642 36.808 78.6082 38.8521C78.6073 39.0856 78.5641 39.2812 78.4783 39.4428C78.3991 39.6088 78.301 39.7504 78.1804 39.8674C78.0673 39.9775 77.9557 40.0689 77.839 40.1372C77.7288 40.21 77.6395 40.2394 77.5669 40.2327C77.3077 40.2088 77.066 40.0509 76.8383 39.7586C76.6106 39.4664 76.4896 39.1011 76.4793 38.6557C76.479 37.6838 76.4825 36.7084 76.4859 35.7331C76.496 34.7621 76.4928 33.7824 76.4799 32.7943C73.9398 33.3133 71.2688 33.7261 68.4603 34.0282C68.5165 34.5984 68.5693 35.1684 68.6179 35.7454C68.6638 36.3147 68.7272 36.8818 68.8044 37.4502C68.8241 37.5538 68.8285 37.7199 68.821 37.949C68.8097 38.1815 68.7768 38.4233 68.722 38.6782C68.6634 38.9365 68.572 39.1692 68.4444 39.3759C68.3243 39.5757 68.1565 39.7185 67.938 39.7962C67.749 39.8089 67.5567 39.7309 67.3577 39.5619C67.1557 39.385 67.0264 39.2149 66.9655 39.0586C66.7403 38.2467 66.5482 37.2797 66.3857 36.1572C66.2306 35.0279 66.1105 33.8528 66.0221 32.6279C65.9413 31.3962 65.9134 30.1543 65.9389 28.8985C65.9719 27.6358 66.0557 26.4343 66.1942 25.2906C66.2688 24.9171 66.425 24.6565 66.6597 24.5049C66.901 24.3576 67.1151 24.2907 67.3017 24.3079C67.5125 24.3274 67.6892 24.4266 67.8359 24.5983C67.9796 24.7623 68.0891 24.9645 68.1645 25.2012C68.2361 25.4414 68.2874 25.6759 68.3178 25.9085C68.3446 26.1445 68.3535 26.3412 68.3412 26.4983C68.3045 27.3199 68.276 28.1272 68.2627 28.917C68.2457 29.7103 68.2664 30.5108 68.3249 31.3185C69.5347 31.2494 70.8639 31.1234 72.3095 30.9328C73.7514 30.7457 75.1139 30.506 76.3903 30.2094C76.388 29.6178 76.3759 29.0177 76.3503 28.4126C76.3316 27.8082 76.3089 27.2109 76.2827 26.6133C76.317 26.1757 76.4717 25.802 76.7463 25.4958C77.021 25.1897 77.2862 25.0484 77.5454 25.0723C77.7389 25.0902 77.9242 25.2128 78.1013 25.44C78.2859 25.6605 78.3995 25.9874 78.4421 26.4208Z" fill="white"/>
<path d="M28.6333 27.6074C28.7353 28.0394 28.8339 28.5486 28.9289 29.1387C29.0204 29.7288 29.0872 30.3434 29.126 30.9791C29.1611 31.6078 29.1682 32.2576 29.14 32.9319C29.1189 33.6063 29.0485 34.2525 28.9289 34.8707C28.7776 35.5942 28.4855 36.2545 28.0561 36.8516C27.6233 37.4522 27.0989 37.9895 26.4796 38.4672C25.8778 38.9449 25.2127 39.3347 24.4807 39.6333C23.7487 39.9353 23.0097 40.1496 22.2707 40.2795C21.5387 40.413 20.8137 40.4411 20.1029 40.3638C19.399 40.2795 18.7726 40.0793 18.2307 39.7597C17.6008 39.405 17.094 38.9413 16.7104 38.3688C16.3233 37.7893 16.1544 37.0763 16.2037 36.2334C16.2494 35.4186 16.3198 34.6705 16.4148 33.9856C16.5169 33.3042 16.6435 32.6509 16.7949 32.0328C16.9532 31.4076 17.1257 30.7789 17.3157 30.1502C17.5128 29.5145 17.7169 28.8437 17.9351 28.1412C18.0547 27.8321 18.2729 27.6565 18.5826 27.6074C18.7022 27.5793 18.8501 27.5793 19.019 27.6074C19.0929 27.6074 19.1949 27.6495 19.3287 27.7338C19.4589 27.8181 19.582 27.9375 19.6946 28.085C19.8143 28.2255 19.9199 28.3941 20.0043 28.5908C20.0888 28.7805 20.0958 28.9912 20.0325 29.223C19.8073 29.9922 19.5856 30.7754 19.3709 31.5692C19.1527 32.3559 18.9662 33.111 18.8078 33.831C18.6565 34.5546 18.5615 35.1938 18.5263 35.7557C18.4876 36.3177 18.5439 36.7532 18.6952 37.0623C19.0049 37.5224 19.4272 37.8174 19.9621 37.9474C20.5041 38.0808 21.0777 38.0984 21.6794 38.0036C22.2777 37.9123 22.8619 37.7507 23.4249 37.5259C23.995 37.2941 24.4842 37.0447 24.8889 36.7813C25.5364 36.3528 26.008 35.8119 26.3106 35.1657C26.6098 34.5124 26.7963 33.8029 26.8737 33.0443C26.9476 32.2786 26.9441 31.4708 26.8596 30.6279C26.7752 29.785 26.6555 28.9561 26.5077 28.1412C26.4584 27.927 26.4725 27.6565 26.5499 27.3264C26.6238 26.9892 26.8174 26.7223 27.1271 26.5256C27.4649 26.3395 27.7676 26.3675 28.0421 26.6099C28.3236 26.8452 28.5207 27.1789 28.6333 27.6074Z" fill="white"/>
<path d="M34.5083 40.5187C34.4308 39.6301 34.3745 38.622 34.3393 37.4981C34.3112 36.3742 34.2971 35.2187 34.2971 34.028C34.2971 32.8409 34.3006 31.6678 34.3112 30.5158C34.3182 29.3638 34.3464 28.3242 34.3956 27.3969C34.3956 27.1546 34.5083 26.9685 34.7335 26.835C34.9657 26.705 35.1558 26.6488 35.2965 26.6664C35.7364 26.7226 36.032 26.8771 36.1834 27.13C36.3417 27.3759 36.4438 27.7271 36.4931 28.1837C36.4649 28.9529 36.4438 29.722 36.4367 30.4877C36.4262 31.2569 36.4297 32.0261 36.4508 32.7917C37.5382 32.5951 38.4497 32.1982 39.1817 31.5976C39.9137 31.0005 40.4345 30.3156 40.7442 29.5464C40.8638 29.2655 40.9553 28.9213 41.0116 28.5068C41.075 28.0959 41.082 27.685 41.0257 27.2705C40.9764 26.849 40.8638 26.4557 40.6879 26.0904C40.5084 25.7181 40.2409 25.416 39.8855 25.1913C39.3506 24.8822 38.7664 24.7206 38.14 24.6996C37.5206 24.6715 36.8766 24.7628 36.2115 24.9665C35.5534 25.1737 34.9059 25.4933 34.269 25.9218C33.639 26.3538 33.0478 26.8701 32.4953 27.4672C32.5586 27.8254 32.5094 28.1415 32.3405 28.4225C32.1786 28.6965 31.9393 28.8932 31.6226 29.0126C31.4325 29.0617 31.2073 28.9564 30.9469 28.7035C30.6829 28.4506 30.5527 28.1942 30.5527 27.9308C30.5527 26.9755 30.8202 26.1466 31.3551 25.4441C31.897 24.7347 32.5798 24.1376 33.3962 23.6599C34.2126 23.1752 35.0889 22.8135 36.0285 22.5782C36.9646 22.3358 37.8303 22.2129 38.6186 22.2129C39.7905 22.2129 40.7723 22.5571 41.5606 23.2385C42.3559 23.9233 42.9014 24.7803 43.1935 25.8094C43.7003 27.6077 43.5736 29.2303 42.8134 30.6703C42.0603 32.1033 40.8322 33.3502 39.1254 34.4074C40.3711 35.1765 41.5395 35.9071 42.6304 36.599C43.7284 37.2944 44.8299 38.046 45.9384 38.8609C46.0792 39.0119 46.2376 39.2261 46.417 39.5071C46.593 39.7811 46.5648 40.1885 46.3326 40.7294C46.1813 41.0666 45.9314 41.2562 45.5865 41.2913C45.2381 41.33 44.8968 41.2281 44.5589 40.9823C44.0311 40.5538 43.4363 40.1042 42.7712 39.6336C42.1131 39.1664 41.4234 38.7028 40.7019 38.2427C39.9876 37.7756 39.2697 37.3225 38.5482 36.88C37.8233 36.4304 37.1406 36.016 36.4931 35.6296C36.5212 36.5849 36.5388 37.5403 36.5494 38.4956C36.5564 39.4439 36.5845 40.3711 36.6338 41.2773C36.6338 41.6145 36.5353 41.8498 36.3382 41.9797C36.1482 42.1132 35.9159 42.1764 35.6344 42.1764C35.4831 42.1483 35.3458 42.0711 35.2262 41.9376C35.1135 41.8076 35.0009 41.6531 34.8883 41.474C34.7827 41.2984 34.6948 41.1192 34.6209 40.9401C34.5434 40.754 34.5083 40.6135 34.5083 40.5187Z" fill="white"/>
<path d="M54.2546 31.5986C54.1314 31.5986 53.9801 31.581 53.8042 31.5424C53.6247 31.5073 53.4558 31.4511 53.2974 31.3738C53.1461 31.2895 53.0088 31.1842 52.8892 31.0507C52.766 30.9102 52.7062 30.7697 52.7062 30.6292C52.7062 30.4431 52.8188 30.2148 53.044 29.9408C53.2763 29.6599 53.6564 29.4456 54.1842 29.2946C54.9057 29.126 55.6623 29.0277 56.4506 28.9996C57.2459 28.9644 58.0412 28.9644 58.8295 28.9996C59.6248 29.0277 60.4096 29.0768 61.1803 29.14C61.9475 29.1962 62.6654 29.2384 63.334 29.2665C63.7176 29.2665 63.971 29.3367 64.0941 29.4772C64.2138 29.6177 64.2771 29.7863 64.2771 29.983C64.2771 30.415 64.0836 30.7522 63.7 30.9945C63.3129 31.2298 62.9293 31.3387 62.5457 31.3176C62.1305 31.2895 61.7046 31.2755 61.2647 31.2755C60.8213 31.2755 60.3638 31.2755 59.8852 31.2755C59.8852 31.9498 59.9134 32.7014 59.9697 33.5233C60.026 34.3487 60.0894 35.1811 60.1668 36.024C60.2407 36.867 60.3216 37.6748 60.4061 38.4404C60.4905 39.1991 60.5644 39.8453 60.6313 40.3792C60.677 40.5688 60.6348 40.7409 60.5046 40.899C60.3709 41.0606 60.1738 41.1378 59.9134 41.1378C59.4066 41.1378 59.0336 40.8252 58.8013 40.1966C58.3403 39.027 58.0166 37.6818 57.8301 36.1645C56.5245 36.9618 55.247 37.457 54.0012 37.6537C52.7519 37.8434 51.6293 37.8012 50.6369 37.5273C49.641 37.2463 48.8351 36.7651 48.2158 36.0802C47.6034 35.3988 47.3008 34.5629 47.3008 33.5795C47.3008 32.6453 47.4697 31.6372 47.8075 30.559C48.1454 29.4842 48.624 28.4446 49.2433 27.4401C49.8698 26.4286 50.6123 25.5119 51.4674 24.6865C52.3191 23.8541 53.2728 23.2219 54.325 22.7899C54.691 22.6986 55.0323 22.6846 55.3526 22.7478C55.6799 22.804 55.979 22.9234 56.2535 23.099C56.535 23.2781 56.7884 23.4924 57.0136 23.7453C57.2388 23.9981 57.4359 24.244 57.6048 24.4758C57.7245 24.6444 57.7949 24.827 57.816 25.0237C57.8441 25.2134 57.7738 25.389 57.6048 25.5576C57.2459 25.821 56.9362 25.7964 56.6758 25.4873C56.2605 24.9816 55.9156 24.6795 55.6341 24.5741C55.3596 24.4617 54.9866 24.5601 54.508 24.8692C54.0294 25.2063 53.498 25.7191 52.9173 26.4005C52.3437 27.0854 51.8088 27.844 51.3126 28.6764C50.8234 29.5018 50.4328 30.3553 50.1442 31.2333C49.8627 32.1044 49.7677 32.9122 49.8627 33.6497C49.9366 34.296 50.2991 34.7596 50.9466 35.0406C51.5941 35.3145 52.3296 35.441 53.1566 35.4199C53.9801 35.3918 54.8071 35.2373 55.6341 34.9563C56.4682 34.6683 57.1157 34.2784 57.5767 33.7902C57.5485 33.3898 57.5204 32.9754 57.4922 32.5539C57.4711 32.1325 57.4641 31.7215 57.4641 31.3176C56.9362 31.3668 56.4083 31.4089 55.8734 31.4441C55.3455 31.4722 54.8071 31.5248 54.2546 31.5986Z" fill="white"/>
<path d="M82.5842 41.1378C82.461 41.5417 82.3027 41.907 82.1056 42.2336C81.9156 42.5532 81.715 42.7359 81.5003 42.7815C81.0393 42.9044 80.6874 42.8342 80.4446 42.5708C80.2088 42.3109 80.1138 41.9737 80.163 41.5593C80.3601 40.1263 80.6733 38.616 81.1062 37.0215C81.5355 35.4199 82.0387 33.8253 82.6123 32.2308C83.193 30.6397 83.8265 29.0943 84.5127 27.5946C85.1954 26.0984 85.8957 24.7357 86.6101 23.5064C86.7297 23.3202 86.867 23.2078 87.0183 23.1692C87.1767 23.1341 87.3174 23.1376 87.4406 23.1833C87.5603 23.0919 87.7081 23.0112 87.877 22.9444C88.0459 22.8707 88.2148 22.832 88.3837 22.832C88.4471 22.832 88.5245 22.8461 88.609 22.8742C88.6934 22.8953 88.7814 22.9655 88.8764 23.0849C88.9785 23.1973 89.0946 23.3729 89.2283 23.6047C89.3585 23.8295 89.5169 24.1597 89.7069 24.5881C90.0448 25.8174 90.4319 27.0748 90.8753 28.3673C91.3258 29.6598 91.7903 30.9523 92.2689 32.2448C92.3428 32.2273 92.4096 32.2132 92.466 32.2027C92.5293 32.1851 92.5962 32.1675 92.663 32.1465C92.934 32.1184 93.2331 32.1289 93.5639 32.1746C93.9018 32.2237 94.1305 32.3923 94.2537 32.6803C94.3944 33.0386 94.3663 33.3512 94.1692 33.6216C93.9792 33.885 93.6378 34.1484 93.1416 34.4084C93.4513 35.1775 93.761 35.9256 94.0707 36.6562C94.3874 37.3867 94.7112 38.0997 95.042 38.7916C95.0701 38.9145 95.1053 39.1007 95.1546 39.3536C95.2003 39.6065 95.2285 39.8593 95.239 40.1122C95.2566 40.3581 95.239 40.5899 95.1827 40.8147C95.1335 41.0324 95.042 41.1729 94.9012 41.2361C94.7323 41.3134 94.5563 41.3029 94.3804 41.208C94.2009 41.1062 94.0285 40.9797 93.8595 40.8287C93.6906 40.6707 93.5393 40.5021 93.4091 40.323C93.2754 40.1473 93.1733 39.9823 93.0994 39.8312C92.6947 39.0445 92.3041 38.2507 91.931 37.4429C91.5545 36.6386 91.1991 35.8273 90.8612 35.0125C89.8547 35.2091 88.7568 35.3848 87.5673 35.5323C86.3743 35.6728 85.206 35.7676 84.0622 35.8132C83.7877 36.7229 83.5273 37.6185 83.2739 38.4966C83.0276 39.3676 82.7989 40.2492 82.5842 41.1378ZM87.694 26.0211C86.5855 28.4938 85.6247 30.9664 84.8083 33.439C86.4201 33.3933 88.1374 33.1861 89.9603 32.8208C89.0946 30.6397 88.3415 28.3743 87.694 26.0211Z" fill="white"/>
<path d="M97.7084 26.8912C97.3495 27.0317 97.0363 27.0458 96.7653 26.9334C96.5014 26.814 96.3149 26.6524 96.2022 26.4557C96.0333 26.2134 95.9876 25.9605 96.0615 25.6971C96.1248 25.4372 96.3289 25.2124 96.6668 25.0227C97.2193 24.7066 97.9125 24.4467 98.7501 24.25C99.5947 24.0463 100.496 23.9901 101.453 24.0815C102.417 24.1763 103.3 24.4327 104.099 24.8542C104.905 25.2756 105.591 25.8095 106.154 26.4557C106.724 27.102 107.161 27.8431 107.464 28.6755C107.763 29.5008 107.9 30.3684 107.872 31.2745C107.822 32.2404 107.636 33.1992 107.309 34.1545C106.988 35.1099 106.549 36.009 105.985 36.8519C105.422 37.6949 104.747 38.4605 103.958 39.1419C103.177 39.8163 102.319 40.3466 101.382 40.7294C100.735 40.898 100.242 40.9261 99.9044 40.8137C99.5736 40.6943 99.3484 40.5468 99.2287 40.3782C99.1794 40.2588 99.1618 40.0937 99.1724 39.8865C99.1794 39.6828 99.3061 39.4721 99.5525 39.2543C99.2604 36.9327 99.0809 34.6884 99.0176 32.5249C98.9612 30.3543 98.9331 28.3664 98.9331 26.5681C98.5284 26.6349 98.1202 26.7437 97.7084 26.8912ZM101.636 26.4276C101.495 26.3995 101.344 26.382 101.185 26.3714C101.034 26.3539 100.883 26.3433 100.735 26.3433C100.883 26.54 101.006 26.7789 101.101 27.0598C101.192 27.3338 101.242 27.6007 101.242 27.8606C101.242 29.3217 101.259 30.8917 101.298 32.567C101.333 34.2459 101.446 36.0582 101.636 38.004C102.695 37.2383 103.599 36.2724 104.353 35.1099C105.113 33.9508 105.514 32.718 105.563 31.415C105.591 30.2173 105.289 29.1601 104.662 28.2399C104.043 27.3127 103.033 26.7086 101.636 26.4276Z" fill="white"/>
<path d="M112.202 41.1378C112.079 41.5417 111.921 41.907 111.724 42.2336C111.534 42.5532 111.333 42.7359 111.118 42.7815C110.657 42.9044 110.306 42.8342 110.063 42.5708C109.827 42.3109 109.732 41.9737 109.781 41.5593C109.978 40.1263 110.291 38.616 110.724 37.0215C111.154 35.4199 111.657 33.8253 112.231 32.2308C112.811 30.6397 113.445 29.0943 114.131 27.5946C114.814 26.0984 115.514 24.7357 116.228 23.5064C116.348 23.3202 116.485 23.2078 116.636 23.1692C116.795 23.1341 116.936 23.1376 117.059 23.1833C117.178 23.0919 117.326 23.0112 117.495 22.9444C117.664 22.8707 117.833 22.832 118.002 22.832C118.065 22.832 118.143 22.8461 118.227 22.8742C118.312 22.8953 118.4 22.9655 118.495 23.0849C118.597 23.1973 118.713 23.3729 118.847 23.6047C118.977 23.8295 119.135 24.1597 119.325 24.5881C119.663 25.8174 120.05 27.0748 120.493 28.3673C120.944 29.6598 121.408 30.9523 121.887 32.2448C121.961 32.2273 122.028 32.2132 122.084 32.2027C122.147 32.1851 122.214 32.1675 122.281 32.1465C122.552 32.1184 122.851 32.1289 123.182 32.1746C123.52 32.2237 123.749 32.3923 123.872 32.6803C124.013 33.0386 123.984 33.3512 123.787 33.6216C123.597 33.885 123.256 34.1484 122.76 34.4084C123.069 35.1775 123.379 35.9256 123.689 36.6562C124.006 37.3867 124.329 38.0997 124.66 38.7916C124.688 38.9145 124.723 39.1007 124.773 39.3536C124.818 39.6065 124.847 39.8593 124.857 40.1122C124.875 40.3581 124.857 40.5899 124.801 40.8147C124.752 41.0324 124.66 41.1729 124.519 41.2361C124.35 41.3134 124.174 41.3029 123.999 41.208C123.819 41.1062 123.647 40.9797 123.478 40.8287C123.309 40.6707 123.157 40.5021 123.027 40.323C122.894 40.1473 122.791 39.9823 122.718 39.8312C122.313 39.0445 121.922 38.2507 121.549 37.4429C121.173 36.6386 120.817 35.8273 120.479 35.0125C119.473 35.2091 118.375 35.3848 117.185 35.5323C115.992 35.6728 114.824 35.7676 113.68 35.8132C113.406 36.7229 113.145 37.6185 112.892 38.4966C112.646 39.3676 112.417 40.2492 112.202 41.1378ZM117.312 26.0211C116.204 28.4938 115.243 30.9664 114.426 33.439C116.038 33.3933 117.756 33.1861 119.578 32.8208C118.713 30.6397 117.96 28.3743 117.312 26.0211Z" fill="white"/>
</g>
<defs>
<clipPath id="clip0_1703_19047">
<rect width="125" height="20.9048" fill="white" transform="translate(0 21.9883)"/>
</clipPath>
</defs>
</svg>
