<svg width="104" height="32" viewBox="0 0 104 32" fill="none" xmlns="http://www.w3.org/2000/svg">
<path d="M2.98023e-08 31.16C2.98023e-08 30.12 2.98023e-08 28.7467 2.98023e-08 27.04C2.98023e-08 25.3333 2.98023e-08 23.4533 2.98023e-08 21.4C0.0266668 19.3467 0.0400001 17.2533 0.0400001 15.12C0.0400001 12.9867 0.0400001 10.9467 0.0400001 9C0.0666667 7.05333 0.0933334 5.34667 0.12 3.88C0.146667 2.41333 0.173333 1.33333 0.2 0.639997L7.4 0.879999C7.32 3.01333 7.25333 5.42667 7.2 8.12C7.17333 10.7867 7.14667 13.5067 7.12 16.28C9.2 13.9333 11.2267 11.44 13.2 8.8C15.1733 6.16 17.1733 3.29333 19.2 0.199998L24.64 1.4C22.2933 4.57333 19.6 7.81333 16.56 11.12C17.6 12.9333 18.6667 14.92 19.76 17.08C20.8533 19.2133 21.9067 21.4267 22.92 23.72C23.96 25.9867 24.92 28.24 25.8 30.48C24.3867 30.72 22.9867 30.8933 21.6 31C20.2133 31.1333 18.7733 31.2 17.28 31.2C16.8533 29.8133 16.3333 28.2933 15.72 26.64C15.1333 24.96 14.48 23.24 13.76 21.48C13.04 19.72 12.3067 18 11.56 16.32C10.12 17.76 8.62667 19.2 7.08 20.64C7.05333 22.5067 7.04 24.3067 7.04 26.04C7.04 27.7733 7.04 29.4 7.04 30.92L2.98023e-08 31.16ZM46.7184 31.08C45.8384 31.08 44.8918 31.0667 43.8784 31.04C42.8651 31.04 41.8918 31.0267 40.9584 31C40.0518 30.9733 39.2784 30.9467 38.6384 30.92C38.6384 29.64 38.6518 28.2133 38.6784 26.64C38.7051 25.04 38.7451 23.44 38.7984 21.84C38.8518 20.2133 38.9051 18.7333 38.9584 17.4C37.4918 15.48 36.0384 13.5333 34.5984 11.56C33.1584 9.56 31.8384 7.69333 30.6384 5.96C29.4651 4.22666 28.5184 2.78667 27.7984 1.64C28.5718 1.37333 29.6784 1.12 31.1184 0.879999C32.5851 0.613333 34.1718 0.386666 35.8784 0.199998C36.7851 1.98667 37.9718 4.09333 39.4384 6.52C40.9318 8.94667 42.6118 11.5467 44.4784 14.32C45.9984 12.08 47.4651 9.78666 48.8784 7.44C50.3184 5.09333 51.6651 2.72 52.9184 0.319999L57.3984 1.28C56.5184 2.74667 55.4651 4.37333 54.2384 6.16C53.0384 7.94667 51.7451 9.8 50.3584 11.72C48.9984 13.6133 47.6384 15.4533 46.2784 17.24C46.3584 18.52 46.4251 19.96 46.4784 21.56C46.5584 23.1333 46.6118 24.7467 46.6384 26.4C46.6918 28.0267 46.7184 29.5867 46.7184 31.08ZM61.5797 31.04C61.8997 24.56 62.0597 17.9733 62.0597 11.28C62.0597 10.16 62.0464 8.93333 62.0197 7.6C62.0197 6.24 62.0064 4.96 61.9797 3.76C61.9797 2.56 61.9664 1.6 61.9397 0.879999C62.2597 0.826665 62.793 0.786665 63.5397 0.759998C64.313 0.733332 65.153 0.719999 66.0597 0.719999C66.7797 0.719999 67.4864 0.733332 68.1797 0.759998C68.8997 0.786665 69.513 0.826665 70.0197 0.879999C69.9664 2.53333 69.9264 4.18667 69.8997 5.84C69.873 7.49333 69.8464 9.06667 69.8197 10.56C69.8197 12.0267 69.8197 13.3067 69.8197 14.4C69.8197 18.0267 69.8597 21.1733 69.9397 23.84C70.0464 26.5067 70.193 28.8667 70.3797 30.92C68.9397 30.9733 67.473 31 65.9797 31C64.513 31.0267 63.0464 31.04 61.5797 31.04ZM85.4738 31.4C83.7938 27.2667 82.0204 22.6 80.1538 17.4C78.3138 12.1733 76.4604 6.70667 74.5938 0.999998C76.2204 0.706665 77.7138 0.506665 79.0738 0.399998C80.4604 0.266665 81.8204 0.199998 83.1538 0.199998C83.7671 2.6 84.4071 5.06667 85.0738 7.6C85.7671 10.1333 86.4604 12.6 87.1538 15C87.8738 17.4 88.5538 19.6133 89.1938 21.64C89.8338 23.6667 90.3938 25.36 90.8738 26.72C91.4604 25.12 92.1671 22.9733 92.9938 20.28C93.8204 17.5867 94.7138 14.5333 95.6738 11.12C96.6338 7.70667 97.6071 4.12 98.5938 0.359999L103.394 0.679999C101.927 5.77333 100.26 10.9067 98.3938 16.08C96.5538 21.2267 94.5938 26.2 92.5138 31L85.4738 31.4Z" fill="white"/>
</svg>
