<svg width="94" height="38" viewBox="0 0 94 38" fill="none" xmlns="http://www.w3.org/2000/svg">
<path d="M34.9098 32.1219C40.9272 35.6636 46.4767 26.4258 40.4508 22.877C34.4372 19.3349 28.8838 28.5731 34.9098 32.1219Z" fill="#FFBD60" fill-opacity="0.7"/>
<path d="M88.7712 32.4487C92.297 34.5244 95.553 29.1119 92.0187 27.0292C88.4972 24.9571 85.2412 30.3695 88.7712 32.4487Z" fill="#FFBD60" fill-opacity="0.7"/>
<path d="M63.4993 14.9521C63.1292 16.3158 63.117 17.683 63.4666 19.0534C63.7216 19.6927 63.9763 20.328 64.2313 20.9673C64.9483 22.2314 65.9324 23.2385 67.1912 23.984C68.1342 24.5861 69.1465 24.9135 70.2398 24.9691C71.2708 25.2014 72.3051 25.1688 73.3421 24.8674C74.7243 24.5161 75.9287 23.8536 76.963 22.8791C78.0278 21.8512 78.7642 20.6266 79.1644 19.2058C79.2207 19.049 79.2771 18.8923 79.3253 18.7323L79.6061 16.6954C79.6477 15.6486 79.4395 14.6627 78.978 13.742C78.802 13.0647 78.469 12.4751 77.9829 11.973C77.4161 11.0615 76.6509 10.3426 75.6798 9.82085C75.0219 9.544 74.364 9.26716 73.7019 8.98681L71.6487 8.70429C70.5879 8.66139 69.593 8.8657 68.6643 9.32106C67.6584 9.61974 66.7839 10.1521 66.0405 10.9142C65.9214 11.0297 65.8112 11.1562 65.6968 11.2791C64.632 12.307 63.8995 13.5313 63.4993 14.9521Z" fill="#FFBD60" fill-opacity="0.7"/>
<path d="M18.6015 22.0496C19.9669 18.953 20.6553 16.0641 20.8655 15.537C20.8655 15.537 25.4576 15.4314 28.1736 14.6878C28.8526 14.5014 28.9952 14.1025 28.5081 13.6482C27.3683 12.5846 23.7551 10.3251 22.0518 9.21403C22.1491 8.52254 23.2308 3.77099 23.4524 0.860065C23.5146 0.0489878 22.82 -0.204223 22.287 0.16791C21.6519 0.610863 19.0548 2.56841 16.1382 5.27155C14.9524 4.68362 13.3303 3.76698 7.98208 1.95041C7.34429 1.73394 6.73151 1.92769 7.19025 3.01537C7.95978 4.83996 9.52316 7.80968 10.6224 9.355C10.6224 9.355 7.44361 13.7939 6.47072 16.1362C6.07278 17.0943 6.11332 17.5219 7.13012 17.3422C9.10901 16.9934 12.7506 15.867 14.316 15.257C15.0774 18.041 16.3753 20.4789 17.1448 21.8058C17.7941 22.9262 18.2555 22.8347 18.6015 22.0496Z" fill="#FF703E"/>
<path d="M21.7731 4.45661C21.5502 4.04038 20.8955 4.38245 21.1191 4.79934C21.3421 5.21557 21.9968 4.8735 21.7731 4.45661Z" fill="white"/>
<path d="M18.7972 12.0054C18.5736 11.5892 17.9189 11.9313 18.1426 12.3482C18.3662 12.7644 19.0209 12.4223 18.7972 12.0054Z" fill="white"/>
<path d="M25.9193 12.7144C25.6957 12.2982 25.041 12.6403 25.2646 13.0572C25.4883 13.4734 26.1429 13.1313 25.9193 12.7144Z" fill="white"/>
<path d="M16.5251 14.144C16.3021 13.7277 15.6475 14.0705 15.8711 14.4867C16.094 14.9036 16.7487 14.5609 16.5251 14.144Z" fill="white"/>
<path d="M12.2326 10.9693C11.9204 10.3874 11.0043 10.8658 11.3171 11.449C11.6292 12.0316 12.5454 11.5526 12.2326 10.9693Z" fill="white"/>
<path d="M8.27103 16.1226C8.01091 15.6375 7.24679 16.0364 7.50758 16.5221C7.76837 17.0078 8.53182 16.6089 8.27103 16.1226Z" fill="white"/>
<path d="M12.1026 7.5452C11.7635 6.91251 10.769 7.43229 11.1088 8.06565C11.448 8.69835 12.4425 8.17856 12.1026 7.5452Z" fill="white"/>
<path d="M20.8338 6.65067C20.4946 6.01798 19.4994 6.53776 19.8392 7.17112C20.1784 7.80382 21.1729 7.28403 20.8338 6.65067Z" fill="white"/>
<path d="M9.81219 13.0754C9.58924 12.6599 8.93456 13.0013 9.15819 13.4188C9.38115 13.8344 10.0358 13.4923 9.81219 13.0754Z" fill="white"/>
<path d="M13.3753 13.3218C13.1524 12.9056 12.497 13.2477 12.7207 13.6646C12.9436 14.0808 13.599 13.7387 13.3753 13.3218Z" fill="white"/>
<path d="M18.9694 4.26325C18.7465 3.84702 18.0918 4.18909 18.3154 4.60598C18.5384 5.02221 19.193 4.68014 18.9694 4.26325Z" fill="white"/>
<path d="M8.74255 2.75543C8.51892 2.33921 7.86425 2.68127 8.08788 3.09817C8.31083 3.5144 8.96618 3.17233 8.74255 2.75543Z" fill="white"/>
<path d="M12.3063 4.36676C12.0834 3.95053 11.4287 4.2926 11.6523 4.7095C11.8753 5.12573 12.53 4.78366 12.3063 4.36676Z" fill="white"/>
<path d="M17.0319 9.38629C16.809 8.97006 16.1543 9.31213 16.3779 9.72903C16.6009 10.1453 17.2555 9.80319 17.0319 9.38629Z" fill="white"/>
<path d="M13.8796 9.19521C13.6566 8.77831 13.0019 9.12105 13.2256 9.53727C13.4485 9.95417 14.1032 9.6121 13.8796 9.19521Z" fill="white"/>
<path d="M20.4079 14.0425C20.1849 13.6263 19.5303 13.9684 19.7539 14.3853C19.9768 14.8015 20.6315 14.4594 20.4079 14.0425Z" fill="white"/>
<path d="M18.6512 18.7922C18.3661 18.2604 17.5297 18.698 17.8155 19.2304C18.1006 19.7623 18.937 19.3247 18.6512 18.7922Z" fill="white"/>
<path d="M14.0438 5.54391L13.935 5.6007C13.0932 6.04165 13.785 7.33643 14.6289 6.89415L14.7377 6.83736C15.5802 6.39575 14.8876 5.10163 14.0438 5.54391Z" fill="white"/>
<path d="M22.8467 12.9034C22.4002 12.071 21.0908 12.7551 21.5381 13.5889C21.984 14.4214 23.294 13.7372 22.8467 12.9034Z" fill="white"/>
<path d="M22.8467 1.69251C22.4002 0.860051 21.0908 1.54419 21.5381 2.37798C21.984 3.21044 23.294 2.5263 22.8467 1.69251Z" fill="white"/>
<path d="M16.9185 16.6984C16.4719 15.8659 15.1625 16.55 15.6091 17.3838C16.0557 18.2163 17.365 17.5322 16.9185 16.6984Z" fill="white"/>
<path d="M15.9089 11.2452C15.4623 10.4128 14.1523 11.0969 14.5995 11.9307C15.0461 12.7632 16.3555 12.079 15.9089 11.2452Z" fill="white"/>
<path d="M9.40707 4.5263L9.29762 4.58309C8.45513 5.02471 9.14764 6.31882 9.99149 5.87721L10.1003 5.81975C10.9428 5.3788 10.2502 4.08402 9.40707 4.5263Z" fill="white"/>
<path d="M11.0997 15.2585C10.6531 14.4267 9.34373 15.1108 9.79099 15.9446C10.2369 16.7764 11.5469 16.0922 11.0997 15.2585Z" fill="white"/>
<path d="M18.0046 6.74134C17.558 5.90888 16.248 6.59302 16.6953 7.42681C17.1418 8.25927 18.4512 7.57446 18.0046 6.74134Z" fill="white"/>
<path d="M20.99 9.83899C20.5441 9.00654 19.2348 9.69067 19.6814 10.5245C20.128 11.3563 21.4373 10.6728 20.99 9.83899Z" fill="white"/>
<path d="M20.043 15.7529C19.5964 14.9204 18.2871 15.6052 18.7344 16.439C19.1809 17.2708 20.4903 16.5867 20.043 15.7529Z" fill="white"/>
<g clip-path="url(#clip0_1718_21299)">
<path d="M9.45366 19.9535C9.70771 21.3981 9.89296 22.8426 10.0147 24.2872C10.1417 25.7265 10.2423 27.1554 10.3217 28.579C10.3349 28.7413 10.3137 28.88 10.2582 28.9977C10.2079 29.1181 10.1417 29.2228 10.057 29.3118C9.97764 29.3955 9.89825 29.4662 9.81357 29.5211C9.73418 29.5787 9.66802 29.6049 9.61244 29.6049C9.41396 29.6049 9.22078 29.5106 9.03024 29.3222C8.83969 29.1338 8.7259 28.8878 8.6915 28.579C8.63328 27.9038 8.5777 27.226 8.52213 26.5483C8.47185 25.8731 8.41098 25.1927 8.34217 24.507C6.44206 25.0304 4.43609 25.4884 2.31897 25.8783C2.39572 26.2709 2.46982 26.6634 2.54127 27.0612C2.61008 27.4537 2.69212 27.8436 2.78474 28.2336C2.80591 28.3042 2.81914 28.4194 2.82708 28.579C2.83238 28.7413 2.82179 28.9114 2.79533 29.0919C2.76621 29.2751 2.71064 29.4426 2.62596 29.5944C2.54656 29.7409 2.42748 29.8509 2.26605 29.9189C2.12314 29.9398 1.9723 29.898 1.81087 29.7933C1.64679 29.6834 1.53829 29.5735 1.48271 29.4688C1.26306 28.9192 1.05929 28.2597 0.868748 27.4904C0.6835 26.7157 0.52207 25.9071 0.381811 25.0618C0.246845 24.2113 0.151575 23.3503 0.0960006 22.4763C0.0457189 21.597 0.0377803 20.7569 0.0748295 19.9535C0.109232 19.6892 0.212442 19.4982 0.381811 19.3778C0.556473 19.26 0.715258 19.1998 0.858163 19.1998C1.01959 19.1998 1.15985 19.2574 1.28159 19.3673C1.40067 19.472 1.49594 19.6055 1.5674 19.7651C1.6362 19.9273 1.68913 20.087 1.72618 20.2466C1.76058 20.4089 1.77911 20.5449 1.77911 20.6549C1.80028 21.228 1.82674 21.7906 1.86379 22.3402C1.8982 22.8924 1.96171 23.4472 2.05433 24.0046C2.96999 23.879 3.97297 23.7062 5.06064 23.4812C6.14566 23.2587 7.16717 23.0049 8.11987 22.717C8.08283 22.3062 8.03784 21.8901 7.98226 21.4714C7.93198 21.0526 7.87905 20.6392 7.82348 20.2257C7.82348 19.9195 7.91875 19.6499 8.10929 19.4197C8.29983 19.1894 8.49302 19.0742 8.6915 19.0742C8.83969 19.0742 8.98789 19.1475 9.13609 19.294C9.28958 19.4354 9.39544 19.6552 9.45366 19.9535Z" fill="white"/>
<path d="M58.988 19.6847C59.1156 21.2457 59.1757 22.8006 59.1734 24.3497C59.1768 25.8937 59.155 27.4242 59.1129 28.9473C59.1122 29.1212 59.0797 29.267 59.0152 29.3874C58.9557 29.5111 58.8819 29.6166 58.7912 29.7038C58.7062 29.7858 58.6223 29.8539 58.5345 29.9048C58.4516 29.959 58.3845 29.9809 58.3299 29.976C58.135 29.9581 57.9532 29.8405 57.782 29.6227C57.6107 29.405 57.5197 29.1328 57.512 28.8009C57.5118 28.0768 57.5144 27.35 57.517 26.6233C57.5245 25.8999 57.5221 25.1699 57.5124 24.4336C55.6023 24.8203 53.5937 25.1279 51.4817 25.353C51.524 25.7779 51.5636 26.2025 51.6003 26.6325C51.6347 27.0567 51.6824 27.4792 51.7405 27.9028C51.7553 27.9799 51.7586 28.1037 51.7529 28.2744C51.7444 28.4476 51.7197 28.6278 51.6785 28.8177C51.6344 29.0102 51.5657 29.1835 51.4698 29.3375C51.3794 29.4865 51.2532 29.5928 51.0889 29.6508C50.9468 29.6602 50.8022 29.6021 50.6525 29.4761C50.5007 29.3444 50.4034 29.2176 50.3576 29.1011C50.1883 28.4962 50.0438 27.7757 49.9216 26.9393C49.805 26.0979 49.7147 25.2223 49.6482 24.3097C49.5874 23.3919 49.5665 22.4666 49.5856 21.5308C49.6104 20.59 49.6734 19.6948 49.7776 18.8427C49.8337 18.5643 49.9511 18.3702 50.1276 18.2572C50.3091 18.1475 50.4701 18.0976 50.6104 18.1105C50.769 18.1249 50.9018 18.1988 51.0121 18.3268C51.1202 18.449 51.2025 18.5996 51.2593 18.776C51.3131 18.955 51.3516 19.1297 51.3746 19.303C51.3947 19.4789 51.4014 19.6255 51.3921 19.7425C51.3646 20.3547 51.3431 20.9561 51.3331 21.5447C51.3203 22.1357 51.3359 22.7322 51.3799 23.334C52.2897 23.2825 53.2892 23.1886 54.3763 23.0466C55.4606 22.9072 56.4852 22.7286 57.4451 22.5076C57.4433 22.0668 57.4343 21.6197 57.415 21.1688C57.4009 20.7185 57.3838 20.2734 57.3641 19.8282C57.39 19.5021 57.5063 19.2237 57.7128 18.9956C57.9193 18.7674 58.1188 18.6622 58.3137 18.68C58.4592 18.6933 58.5986 18.7846 58.7317 18.954C58.8706 19.1182 58.956 19.3618 58.988 19.6847Z" fill="white"/>
<path d="M21.5321 20.5702C21.6088 20.8921 21.6829 21.2716 21.7544 21.7112C21.8232 22.1509 21.8734 22.6088 21.9026 23.0825C21.929 23.5509 21.9343 24.0351 21.9131 24.5375C21.8973 25.04 21.8443 25.5215 21.7544 25.9821C21.6406 26.5212 21.4209 27.0132 21.098 27.4581C20.7725 27.9056 20.3782 28.306 19.9125 28.6619C19.4599 29.0178 18.9598 29.3083 18.4093 29.5307C17.8589 29.7558 17.3031 29.9154 16.7474 30.0122C16.1969 30.1117 15.6518 30.1326 15.1172 30.075C14.5879 30.0122 14.1169 29.8631 13.7093 29.6249C13.2356 29.3606 12.8545 29.0152 12.5661 28.5886C12.275 28.1568 12.1479 27.6256 12.185 26.9975C12.2194 26.3903 12.2723 25.8329 12.3438 25.3226C12.4205 24.8149 12.5158 24.3282 12.6296 23.8676C12.7487 23.4018 12.8783 22.9333 13.0212 22.4649C13.1694 21.9912 13.3229 21.4914 13.487 20.968C13.577 20.7377 13.7411 20.6069 13.9739 20.5702C14.0639 20.5493 14.1751 20.5493 14.3021 20.5702C14.3577 20.5702 14.4344 20.6016 14.535 20.6644C14.6329 20.7273 14.7255 20.8162 14.8102 20.9261C14.9002 21.0308 14.9796 21.1564 15.0431 21.303C15.1066 21.4443 15.1119 21.6013 15.0643 21.774C14.8949 22.3471 14.7282 22.9307 14.5667 23.5222C14.4027 24.1084 14.2624 24.671 14.1433 25.2075C14.0295 25.7466 13.9581 26.2229 13.9316 26.6416C13.9025 27.0603 13.9448 27.3848 14.0586 27.6151C14.2915 27.9579 14.6091 28.1777 15.0113 28.2746C15.4189 28.374 15.8502 28.3871 16.3028 28.3164C16.7527 28.2484 17.192 28.128 17.6154 27.9605C18.0441 27.7878 18.412 27.602 18.7163 27.4057C19.2032 27.0865 19.5578 26.6834 19.7854 26.2019C20.0104 25.7152 20.1506 25.1865 20.2089 24.6213C20.2644 24.0508 20.2618 23.4489 20.1983 22.8208C20.1348 22.1927 20.0448 21.5751 19.9336 20.968C19.8966 20.8084 19.9072 20.6069 19.9654 20.3609C20.021 20.1096 20.1665 19.9108 20.3994 19.7642C20.6535 19.6255 20.881 19.6464 21.0875 19.827C21.2992 20.0024 21.4474 20.251 21.5321 20.5702Z" fill="white"/>
<path d="M25.9501 30.1904C25.8919 29.5283 25.8496 28.7772 25.8231 27.9398C25.8019 27.1024 25.7914 26.2414 25.7914 25.3542C25.7914 24.4697 25.794 23.5956 25.8019 22.7373C25.8072 21.8789 25.8284 21.1043 25.8655 20.4134C25.8655 20.2328 25.9501 20.0941 26.1195 19.9947C26.2942 19.8979 26.4371 19.856 26.5429 19.8691C26.8737 19.911 27.096 20.0261 27.2098 20.2145C27.3289 20.3977 27.4057 20.6594 27.4427 20.9996C27.4215 21.5727 27.4057 22.1458 27.4004 22.7163C27.3924 23.2894 27.3951 23.8626 27.4109 24.4331C28.2287 24.2865 28.9141 23.9908 29.4646 23.5433C30.015 23.0984 30.4067 22.5881 30.6395 22.015C30.7295 21.8056 30.7983 21.5492 30.8407 21.2404C30.8883 20.9342 30.8936 20.628 30.8513 20.3192C30.8142 20.0052 30.7295 19.7121 30.5972 19.4399C30.4622 19.1625 30.2611 18.9374 29.9938 18.77C29.5916 18.5397 29.1523 18.4193 28.6812 18.4036C28.2155 18.3827 27.7312 18.4507 27.231 18.6025C26.7361 18.7569 26.2492 18.995 25.7702 19.3143C25.2965 19.6362 24.8519 20.0209 24.4364 20.4658C24.484 20.7327 24.447 20.9682 24.32 21.1776C24.1982 21.3817 24.0183 21.5282 23.7801 21.6172C23.6372 21.6539 23.4678 21.5753 23.272 21.3869C23.0735 21.1985 22.9756 21.0075 22.9756 20.8112C22.9756 20.0994 23.1767 19.4818 23.579 18.9584C23.9865 18.4298 24.4999 17.9849 25.1139 17.629C25.7278 17.2678 26.3868 16.9983 27.0934 16.8229C27.7973 16.6424 28.4483 16.5508 29.0411 16.5508C29.9224 16.5508 30.6607 16.8072 31.2535 17.3149C31.8516 17.8252 32.2618 18.4638 32.4814 19.2305C32.8625 20.5704 32.7673 21.7795 32.1956 22.8524C31.6293 23.9201 30.7057 24.8492 29.4222 25.6369C30.359 26.21 31.2376 26.7543 32.058 27.2698C32.8837 27.788 33.712 28.348 34.5456 28.9552C34.6515 29.0677 34.7706 29.2273 34.9055 29.4367C35.0379 29.6408 35.0167 29.9444 34.842 30.3474C34.7282 30.5986 34.5403 30.7399 34.281 30.7661C34.019 30.7949 33.7623 30.719 33.5082 30.5358C33.1113 30.2165 32.664 29.8816 32.1639 29.5309C31.669 29.1828 31.1503 28.8374 30.6078 28.4946C30.0706 28.1465 29.5307 27.8089 28.9882 27.4792C28.443 27.1442 27.9296 26.8354 27.4427 26.5476C27.4639 27.2594 27.4771 27.9712 27.485 28.683C27.4903 29.3896 27.5115 30.0805 27.5486 30.7556C27.5486 31.0069 27.4745 31.1822 27.3263 31.279C27.1834 31.3785 27.0087 31.4256 26.797 31.4256C26.6832 31.4046 26.58 31.3471 26.49 31.2476C26.4053 31.1508 26.3206 31.0356 26.2359 30.9022C26.1566 30.7713 26.0904 30.6379 26.0348 30.5044C25.9766 30.3657 25.9501 30.261 25.9501 30.1904Z" fill="white"/>
<path d="M40.7996 23.5436C40.707 23.5436 40.5932 23.5305 40.4609 23.5017C40.3259 23.4755 40.1989 23.4337 40.0798 23.3761C39.966 23.3133 39.8628 23.2348 39.7728 23.1353C39.6802 23.0306 39.6352 22.926 39.6352 22.8213C39.6352 22.6826 39.7199 22.5125 39.8892 22.3084C40.0639 22.099 40.3497 21.9394 40.7467 21.8268C41.2892 21.7012 41.8582 21.6279 42.4509 21.607C43.049 21.5808 43.6471 21.5808 44.2399 21.607C44.838 21.6279 45.4281 21.6646 46.0077 21.7117C46.5846 21.7536 47.1245 21.785 47.6273 21.8059C47.9158 21.8059 48.1063 21.8582 48.1989 21.9629C48.2889 22.0676 48.3365 22.1932 48.3365 22.3398C48.3365 22.6616 48.191 22.9129 47.9025 23.0934C47.6114 23.2688 47.323 23.3499 47.0345 23.3342C46.7222 23.3133 46.402 23.3028 46.0712 23.3028C45.7378 23.3028 45.3937 23.3028 45.0338 23.3028C45.0338 23.8053 45.055 24.3653 45.0973 24.9777C45.1397 25.5926 45.1873 26.2129 45.2455 26.8409C45.3011 27.469 45.362 28.0709 45.4255 28.6414C45.489 29.2067 45.5446 29.6882 45.5949 30.086C45.6293 30.2273 45.5975 30.3555 45.4996 30.4733C45.399 30.5936 45.2508 30.6512 45.055 30.6512C44.6739 30.6512 44.3934 30.4183 44.2187 29.9499C43.8721 29.0784 43.6286 28.0761 43.4883 26.9456C42.5065 27.5397 41.5459 27.9086 40.6091 28.0552C39.6696 28.1965 38.8254 28.1651 38.0791 27.961C37.3302 27.7516 36.7241 27.3931 36.2584 26.8828C35.7979 26.3751 35.5703 25.7523 35.5703 25.0195C35.5703 24.3234 35.6973 23.5723 35.9514 22.7689C36.2054 21.9682 36.5654 21.1935 37.0311 20.4451C37.5022 19.6914 38.0606 19.0084 38.7036 18.3934C39.3441 17.7732 40.0612 17.3021 40.8525 16.9802C41.1277 16.9122 41.3844 16.9017 41.6253 16.9488C41.8714 16.9907 42.0963 17.0797 42.3027 17.2105C42.5145 17.344 42.705 17.5036 42.8744 17.692C43.0437 17.8805 43.1919 18.0637 43.319 18.2364C43.4089 18.362 43.4619 18.4981 43.4777 18.6446C43.4989 18.7859 43.446 18.9168 43.319 19.0424C43.049 19.2387 42.8161 19.2203 42.6203 18.9901C42.308 18.6132 42.0487 18.3882 41.837 18.3096C41.6306 18.2259 41.35 18.2992 40.9901 18.5295C40.6302 18.7807 40.2306 19.1628 39.794 19.6705C39.3626 20.1808 38.9603 20.746 38.5872 21.3663C38.2194 21.9812 37.9256 22.6172 37.7086 23.2714C37.4969 23.9204 37.4254 24.5223 37.4969 25.0719C37.5525 25.5534 37.825 25.8988 38.312 26.1082C38.7989 26.3123 39.352 26.4065 39.9739 26.3908C40.5932 26.3699 41.2151 26.2547 41.837 26.0454C42.4642 25.8308 42.9511 25.5403 43.2978 25.1765C43.2766 24.8782 43.2554 24.5694 43.2343 24.2554C43.2184 23.9413 43.2131 23.6352 43.2131 23.3342C42.8161 23.3708 42.4192 23.4022 42.0169 23.4284C41.62 23.4494 41.2151 23.4886 40.7996 23.5436Z" fill="white"/>
<path d="M62.1037 30.6513C62.011 30.9523 61.8919 31.2244 61.7437 31.4678C61.6008 31.7059 61.45 31.842 61.2886 31.876C60.9419 31.9676 60.6773 31.9153 60.4947 31.719C60.3173 31.5254 60.2459 31.2741 60.2829 30.9653C60.4311 29.8976 60.6667 28.7723 60.9922 27.5842C61.315 26.3909 61.6935 25.2028 62.1248 24.0147C62.5615 22.8292 63.0378 21.6778 63.5539 20.5603C64.0673 19.4455 64.5939 18.4301 65.1311 17.5142C65.2211 17.3755 65.3243 17.2917 65.4381 17.2629C65.5572 17.2368 65.6631 17.2394 65.7557 17.2734C65.8457 17.2054 65.9568 17.1452 66.0838 17.0955C66.2109 17.0405 66.3379 17.0117 66.4649 17.0117C66.5126 17.0117 66.5708 17.0222 66.6343 17.0431C66.6978 17.0588 66.764 17.1112 66.8354 17.2001C66.9122 17.2839 66.9995 17.4147 67.1001 17.5874C67.198 17.7549 67.3171 18.0009 67.46 18.3202C67.714 19.2361 68.0051 20.173 68.3386 21.136C68.6773 22.0991 69.0266 23.0621 69.3865 24.0252C69.4421 24.0121 69.4924 24.0016 69.5347 23.9938C69.5824 23.9807 69.6327 23.9676 69.6829 23.9519C69.8867 23.931 70.1117 23.9388 70.3604 23.9728C70.6145 24.0095 70.7865 24.1351 70.8791 24.3497C70.985 24.6166 70.9638 24.8495 70.8156 25.051C70.6727 25.2473 70.416 25.4436 70.0428 25.6372C70.2757 26.2103 70.5086 26.7677 70.7415 27.3121C70.9797 27.8564 71.2231 28.3876 71.4719 28.9032C71.4931 28.9948 71.5195 29.1335 71.5566 29.3219C71.591 29.5103 71.6122 29.6987 71.6201 29.8872C71.6333 30.0703 71.6201 30.2431 71.5778 30.4105C71.5407 30.5728 71.4719 30.6775 71.366 30.7246C71.239 30.7822 71.1067 30.7743 70.9744 30.7036C70.8394 30.6278 70.7097 30.5335 70.5827 30.421C70.4557 30.3032 70.3419 30.1776 70.244 30.0442C70.1434 29.9133 70.0667 29.7903 70.0111 29.6778C69.7068 29.0916 69.413 28.5002 69.1325 27.8983C68.8493 27.299 68.582 26.6945 68.328 26.0873C67.5711 26.2339 66.7454 26.3647 65.851 26.4746C64.9538 26.5793 64.0752 26.65 63.2151 26.684C63.0087 27.3618 62.8129 28.0291 62.6224 28.6834C62.4371 29.3324 62.2651 29.9892 62.1037 30.6513ZM65.9462 19.3879C65.1126 21.2303 64.3901 23.0726 63.7762 24.9149C64.9882 24.8809 66.2797 24.7265 67.6505 24.4543C66.9995 22.8292 66.4332 21.1413 65.9462 19.3879Z" fill="white"/>
<path d="M73.4771 20.0353C73.2071 20.14 72.9716 20.1505 72.7678 20.0667C72.5694 19.9777 72.4291 19.8574 72.3444 19.7108C72.2174 19.5302 72.183 19.3418 72.2386 19.1455C72.2862 18.9519 72.4397 18.7844 72.6937 18.6431C73.1092 18.4076 73.6306 18.2139 74.2604 18.0674C74.8955 17.9156 75.573 17.8737 76.2928 17.9417C77.0179 18.0124 77.6822 18.2034 78.2829 18.5175C78.889 18.8315 79.405 19.2293 79.8284 19.7108C80.2571 20.1923 80.5853 20.7445 80.8129 21.3647C81.0378 21.9797 81.141 22.6261 81.1199 23.3013C81.0828 24.0209 80.9426 24.7354 80.6964 25.4472C80.4556 26.159 80.1248 26.8289 79.7014 27.457C79.278 28.0851 78.7699 28.6556 78.1771 29.1633C77.5896 29.6657 76.9439 30.0609 76.2399 30.3461C75.753 30.4717 75.3825 30.4927 75.1284 30.4089C74.8797 30.32 74.7103 30.21 74.6203 30.0844C74.5833 29.9955 74.57 29.8725 74.578 29.7181C74.5833 29.5663 74.6785 29.4093 74.8638 29.247C74.6441 27.5172 74.5092 25.845 74.4615 24.2329C74.4192 22.6156 74.398 21.1344 74.398 19.7946C74.0937 19.8443 73.7867 19.9254 73.4771 20.0353ZM76.4304 19.6899C76.3246 19.6689 76.2108 19.6559 76.0917 19.648C75.9779 19.6349 75.8641 19.6271 75.753 19.6271C75.8641 19.7736 75.9567 19.9516 76.0282 20.1609C76.097 20.365 76.1341 20.5639 76.1341 20.7576C76.1341 21.8462 76.1473 23.016 76.1764 24.2643C76.2029 25.5152 76.2875 26.8656 76.4304 28.3154C77.227 27.7449 77.9071 27.0252 78.4735 26.159C79.0451 25.2954 79.3468 24.3768 79.3838 23.406C79.405 22.5136 79.1774 21.7259 78.7064 21.0402C78.2406 20.3493 77.4811 19.8992 76.4304 19.6899Z" fill="white"/>
<path d="M84.3761 30.6513C84.2835 30.9523 84.1644 31.2244 84.0162 31.4678C83.8733 31.7059 83.7225 31.842 83.561 31.876C83.2144 31.9676 82.9497 31.9153 82.7671 31.719C82.5898 31.5254 82.5184 31.2741 82.5554 30.9653C82.7036 29.8976 82.9391 28.7723 83.2646 27.5842C83.5875 26.3909 83.9659 25.2028 84.3973 24.0147C84.8339 22.8292 85.3103 21.6778 85.8263 20.5603C86.3397 19.4455 86.8664 18.4301 87.4036 17.5142C87.4936 17.3755 87.5968 17.2917 87.7106 17.2629C87.8297 17.2368 87.9355 17.2394 88.0281 17.2734C88.1181 17.2054 88.2293 17.1452 88.3563 17.0955C88.4833 17.0405 88.6104 17.0117 88.7374 17.0117C88.785 17.0117 88.8432 17.0222 88.9068 17.0431C88.9703 17.0588 89.0364 17.1112 89.1079 17.2001C89.1846 17.2839 89.272 17.4147 89.3725 17.5874C89.4704 17.7549 89.5895 18.0009 89.7324 18.3202C89.9865 19.2361 90.2776 20.173 90.611 21.136C90.9498 22.0991 91.2991 23.0621 91.659 24.0252C91.7146 24.0121 91.7649 24.0016 91.8072 23.9938C91.8548 23.9807 91.9051 23.9676 91.9554 23.9519C92.1592 23.931 92.3841 23.9388 92.6329 23.9728C92.8869 24.0095 93.059 24.1351 93.1516 24.3497C93.2574 24.6166 93.2363 24.8495 93.0881 25.051C92.9452 25.2473 92.6885 25.4436 92.3153 25.6372C92.5482 26.2103 92.7811 26.7677 93.014 27.3121C93.2521 27.8564 93.4956 28.3876 93.7444 28.9032C93.7655 28.9948 93.792 29.1335 93.8291 29.3219C93.8635 29.5103 93.8846 29.6987 93.8926 29.8872C93.9058 30.0703 93.8926 30.2431 93.8502 30.4105C93.8132 30.5728 93.7444 30.6775 93.6385 30.7246C93.5115 30.7822 93.3792 30.7743 93.2468 30.7036C93.1119 30.6278 92.9822 30.5335 92.8552 30.421C92.7282 30.3032 92.6144 30.1776 92.5164 30.0442C92.4159 29.9133 92.3391 29.7903 92.2836 29.6778C91.9792 29.0916 91.6855 28.5002 91.405 27.8983C91.1218 27.299 90.8545 26.6945 90.6004 26.0873C89.8436 26.2339 89.0179 26.3647 88.1234 26.4746C87.2263 26.5793 86.3477 26.65 85.4876 26.684C85.2812 27.3618 85.0854 28.0291 84.8948 28.6834C84.7096 29.3324 84.5376 29.9892 84.3761 30.6513ZM88.2187 19.3879C87.3851 21.2303 86.6626 23.0726 86.0486 24.9149C87.2607 24.8809 88.5521 24.7265 89.923 24.4543C89.272 22.8292 88.7056 21.1413 88.2187 19.3879Z" fill="white"/>
</g>
<defs>
<clipPath id="clip0_1718_21299">
<rect width="94" height="15.5761" fill="white" transform="translate(0 16.3828)"/>
</clipPath>
</defs>
</svg>
