<svg xmlns="http://www.w3.org/2000/svg" width="25" height="24" fill="none"><path fill="#FF703E" fill-rule="evenodd" d="M8.782 7.532a.75.75 0 0 1 1.06 0l3.938 3.938a.75.75 0 0 1 0 1.06l-3.937 3.938a.75.75 0 0 1-1.06-1.06L12.188 12 8.782 8.593a.75.75 0 0 1 0-1.06Z" clip-rule="evenodd"/><path fill="#FF703E" fill-rule="evenodd" d="M2 12a.75.75 0 0 1 .75-.75h10.5a.75.75 0 0 1 0 1.5H2.75A.75.75 0 0 1 2 12Z" clip-rule="evenodd"/><path fill="#FF703E" fill-rule="evenodd" d="M12.5 3.75a.75.75 0 0 1 .75-.75h5.25A1.5 1.5 0 0 1 20 4.5v15a1.5 1.5 0 0 1-1.5 1.5h-5.25a.75.75 0 0 1 0-1.5h5.25v-15h-5.25a.75.75 0 0 1-.75-.75Z" clip-rule="evenodd"/></svg>