<svg width="24" height="24" viewBox="0 0 24 24" fill="none" xmlns="http://www.w3.org/2000/svg">
<path fill-rule="evenodd" clip-rule="evenodd" d="M15.7224 8.35809C14.6312 8.14104 13.5002 8.25244 12.4724 8.67818C11.4446 9.10392 10.5661 9.82489 9.94798 10.7499C9.3299 11.6749 9 12.7625 9 13.875C9 14.2892 8.66421 14.625 8.25 14.625C7.83579 14.625 7.5 14.2892 7.5 13.875C7.5 13.5068 7.52853 13.1407 7.58466 12.7799C7.43389 12.7592 7.28158 12.7492 7.12886 12.75L7.125 12.75C6.22989 12.75 5.37145 13.1056 4.73851 13.7385C4.10558 14.3715 3.75 15.2299 3.75 16.125C3.75 17.0201 4.10558 17.8786 4.73851 18.5115C5.37145 19.1444 6.22989 19.5 7.125 19.5H14.625C15.7375 19.5 16.8251 19.1701 17.7501 18.552C18.6751 17.9339 19.3961 17.0554 19.8218 16.0276C20.2476 14.9998 20.359 13.8688 20.1419 12.7776C19.9249 11.6865 19.3891 10.6842 18.6025 9.89753C17.8158 9.11086 16.8135 8.57513 15.7224 8.35809ZM7.97279 11.3228C8.16149 10.8309 8.4051 10.3591 8.70078 9.91656C9.48368 8.74486 10.5965 7.83164 11.8984 7.29236C13.2003 6.75309 14.6329 6.61199 16.015 6.88691C17.3971 7.16183 18.6667 7.84042 19.6631 8.83687C20.6596 9.83332 21.3382 11.1029 21.6131 12.485C21.888 13.8671 21.7469 15.2997 21.2076 16.6016C20.6684 17.9035 19.7551 19.0163 18.5834 19.7992C17.4117 20.5821 16.0342 21 14.625 21H7.125C5.83207 21 4.59209 20.4864 3.67785 19.5721C2.76361 18.6579 2.25 17.4179 2.25 16.125C2.25 14.8321 2.76361 13.5921 3.67785 12.6779C4.59165 11.7641 5.83085 11.2505 7.12309 11.25" fill="#FFE350"/>
<path fill-rule="evenodd" clip-rule="evenodd" d="M6.94684 2.36476C7.35465 2.29218 7.74407 2.56394 7.81665 2.97174L8.2104 5.18424C8.28298 5.59205 8.01122 5.98148 7.60341 6.05405C7.19561 6.12663 6.80618 5.85487 6.7336 5.44706L6.33985 3.23456C6.26728 2.82676 6.53904 2.43733 6.94684 2.36476Z" fill="#FFE350"/>
<path fill-rule="evenodd" clip-rule="evenodd" d="M2.10454 5.44793C2.34219 5.10868 2.80986 5.02631 3.14912 5.26396L4.99599 6.55771C5.33525 6.79536 5.41762 7.26304 5.17997 7.60229C4.94231 7.94155 4.47464 8.02392 4.13538 7.78627L2.28851 6.49252C1.94925 6.25486 1.86689 5.78719 2.10454 5.44793Z" fill="#FFE350"/>
<path fill-rule="evenodd" clip-rule="evenodd" d="M4.55356 10.3968C4.62614 10.8046 4.35438 11.194 3.94658 11.2666L1.73408 11.6604C1.32627 11.7329 0.936843 11.4612 0.864268 11.0534C0.791692 10.6456 1.06345 10.2561 1.47126 10.1836L3.68376 9.78981C4.09156 9.71723 4.48099 9.98899 4.55356 10.3968Z" fill="#FFE350"/>
<path fill-rule="evenodd" clip-rule="evenodd" d="M12.5522 3.60454C12.8915 3.84219 12.9739 4.30986 12.7362 4.64912L11.4425 6.49599C11.2048 6.83525 10.7371 6.91762 10.3979 6.67997C10.0586 6.44231 9.97626 5.97464 10.2139 5.63538L11.5077 3.78851C11.7453 3.44925 12.213 3.36689 12.5522 3.60454Z" fill="#FFE350"/>
<path fill-rule="evenodd" clip-rule="evenodd" d="M9.79939 6.33394C8.96649 5.95518 8.02384 5.89401 7.14896 6.16195C6.27409 6.42988 5.52736 7.00844 5.0494 7.78866C4.57166 8.56851 4.39538 9.49606 4.55371 10.3968C4.67406 11.0654 4.96908 11.6904 5.40886 12.2083C5.67697 12.524 5.63837 12.9973 5.32264 13.2654C5.0069 13.5336 4.5336 13.495 4.26549 13.1792C3.65412 12.4593 3.24412 11.5904 3.07712 10.6607L3.07666 10.6582L3.07667 10.6582C2.85447 9.39667 3.10118 8.0974 3.77032 7.00509C4.43947 5.91279 5.48489 5.10281 6.70972 4.7277C7.93454 4.35259 9.25425 4.43823 10.4203 4.96849C11.5864 5.49875 12.5184 6.43704 13.0407 7.60666C13.2096 7.98487 13.04 8.4284 12.6618 8.59731C12.2836 8.76623 11.84 8.59656 11.6711 8.21835C11.298 7.3829 10.6323 6.71269 9.79939 6.33394Z" fill="#FFE350"/>
</svg>
